<svg xmlns="http://www.w3.org/2000/svg" xmlns:xlink="http://www.w3.org/1999/xlink" width="500" zoomAndPan="magnify" viewBox="0 0 375 374.999991" height="500" preserveAspectRatio="xMidYMid meet" version="1.0"><defs><clipPath id="863adb3355"><path d="M 0 29 L 375 29 L 375 337.238281 L 0 337.238281 Z M 0 29 " clip-rule="nonzero"/></clipPath></defs><g clip-path="url(#863adb3355)"><path fill="#eb6911" d="M 109.855469 333.273438 L 168.863281 274.269531 C 171.882812 271.246094 176.796875 271.253906 179.8125 274.269531 L 231.804688 326.261719 C 237.40625 331.863281 246.523438 331.863281 252.121094 326.261719 L 270.195312 308.1875 C 272.910156 305.472656 274.402344 301.863281 274.402344 298.023438 C 274.402344 294.183594 272.910156 290.578125 270.195312 287.863281 L 184.496094 202.167969 C 178.898438 196.566406 169.777344 196.566406 164.175781 202.167969 L 71.460938 294.882812 C 65.859375 300.484375 65.859375 309.597656 71.460938 315.203125 L 89.53125 333.273438 C 92.335938 336.078125 96.015625 337.476562 99.695312 337.476562 C 103.375 337.476562 107.054688 336.078125 109.855469 333.273438 Z M 352.71875 293.089844 L 370.792969 275.015625 C 373.507812 272.300781 375 268.691406 375 264.855469 C 375 261.015625 373.507812 257.40625 370.792969 254.691406 L 251.382812 135.285156 C 245.78125 129.679688 236.664062 129.679688 231.058594 135.285156 L 212.988281 153.355469 C 207.386719 158.957031 207.386719 168.074219 212.988281 173.675781 L 332.398438 293.089844 C 335.199219 295.890625 338.878906 297.289062 342.558594 297.289062 C 346.238281 297.289062 349.917969 295.890625 352.71875 293.089844 Z M 32.445312 270.234375 C 28.605469 270.234375 25 268.738281 22.285156 266.023438 L 4.210938 247.953125 C 1.496094 245.238281 0.00390625 241.628906 0.00390625 237.792969 C 0.00390625 233.953125 1.496094 230.347656 4.210938 227.632812 L 197.988281 33.855469 C 203.589844 28.25 212.707031 28.25 218.3125 33.855469 L 236.378906 51.929688 C 241.984375 57.527344 241.984375 66.648438 236.378906 72.246094 L 42.605469 266.023438 C 39.890625 268.738281 36.285156 270.234375 32.445312 270.234375 " fill-opacity="1" fill-rule="nonzero"/></g></svg>