<svg id="Ebene_1" data-name="Ebene 1" xmlns="http://www.w3.org/2000/svg" viewBox="0 0 708.66 737.01"><defs><style>.cls-1{fill:#fff;}.cls-2{fill:#eb6911;}.cls-3{fill:#f7b885;}.cls-4{fill:none;}</style></defs><title>Zeichenfläche 1</title><path class="cls-1" d="M354.76,731.76c-65.31,0-105.49-32.75-121.32-63.4l-5.28-10.22a299.89,299.89,0,0,1-50-45.47,324.93,324.93,0,0,1-42.43-61.36l-3,5.71L118.46,540.8c-.6-.68-15.33-17.52-22.86-49.53-6.29-26.71-8.9-70.61,13.61-129.2-12.62-16-16.85-38.9-18.16-55.52l-22.82,8.18,11.43-30.21c.54-1.43,13.62-35,47.36-41,2.12-.38,4.34-.67,6.62-.86v-8.41a34.37,34.37,0,0,0-.38-5.59l-.35.06-36.83,6.57a82,82,0,0,1-15.23,1.51c-14.43,0-27-4.32-37.38-12.83-24.06-19.73-28.1-55.29-28.87-87.47V121.05c.47-19.11,3.26-46.5,13.91-69.42C42.15,22.26,66,6.09,95.71,6.09H117c6.69,0,10,0,11.7,0,.44,0,.86,0,1.25,0,.58,0,1.18-.07,1.81-.07l43.27,0c12.16.09,28.92,2,38.17,6.89,2.86-4.35,9.38-6.89,18.4-6.89l50.46,0,68.56,0,7.71,0h145c.59,0,1.14,0,1.65.08V6.11l98.49,0c8.75,0,13,.42,15.49,1.53A76.66,76.66,0,0,1,634.31,6.1H674.9c14.68,0,20,12.11,20,20.25V73.08c0,14.85-12,20.25-20,20.25h-13q1.08,1.55,2.37,3.33l.4.57c2.43,3.59,4.69,6.84,6.69,9.73l.45.63c13.76,19.78,23.7,34.08,23,64.39l0,2.21,0,.5c-1.64,24.73-9.11,42-22.82,52.88-9.09,7.18-20.2,10.82-33,10.82a77.47,77.47,0,0,1-14-1.34l-43.76-7.42a9.68,9.68,0,0,0-1.69-.16c-3.33,0-3.69,3.34-3.69,4.77v8.44c2.27.19,4.49.48,6.61.86,33.74,6,46.82,39.55,47.36,41l11.43,30.21-22.82-8.18c-1.31,16.62-5.54,39.53-18.15,55.52,12.77,33.37,24.78,81.68,13.6,129.2-7.4,31.47-21.32,47.79-22.88,49.55l-14.32,16.11-3-5.62a325.06,325.06,0,0,1-42.42,61.36,299.56,299.56,0,0,1-50,45.47l-5.28,10.23c-15.83,30.64-56,63.39-121.31,63.39"/><path d="M354.76,723.86c-61.82,0-99.63-30.55-114.4-59.15l-6.16-11.92-.22-.16a291.22,291.22,0,0,1-50-45.21,314.73,314.73,0,0,1-47.11-71.21l-1-2-4.81,9.13-6.83-7.77c-.58-.64-14-16-21.1-46.09C97,463.27,94.59,419.77,118,361.18l.27-.68-.5-.53c-15.85-17.12-18.93-46.71-19.35-62.83l0-1.58-16.77,6L87,287.35c.47-1.26,12-30.79,41.42-36a72.3,72.3,0,0,1,11.95-1h1.12V230c0-9-3.94-9.69-5.15-9.69a2.37,2.37,0,0,0-.35,0l-4.2.65-37,6.6a74.17,74.17,0,0,1-13.87,1.39c-12.59,0-23.51-3.72-32.46-11.06-21.6-17.71-25.26-51.15-26-81.53V121.05C22.85,102.9,25.5,76.67,35.58,55,47.85,28.55,69.21,14,95.72,14h33.44v.11l1.22-.07c.42,0,.87,0,1.33,0H175c12.77.11,29.13,2.42,35.67,6.65a9.78,9.78,0,0,0,5,1.91,3.79,3.79,0,0,0,3.68-4c0-4.44,7.86-4.5,7.94-4.51H282c22.44,0,45.89,0,68.55,0l7.73,0H504.94L580,14H607.7a31.7,31.7,0,0,1,7.4.54l-.68,2.37,2-.54A66.54,66.54,0,0,1,634.31,14h44.86c7.85,0,7.94,7.7,7.94,8V77.4c0,7.9-7.6,8-7.93,8H658.59c-7.1,0-8.58.93-9.09,1.85a1.47,1.47,0,0,0,0,1.47c.87,1.47,3.77,6,8.54,12.58l.33.46c2.44,3.63,4.79,7,6.86,10l.26.37c13.38,19.25,22.22,32,21.61,59.68l0,2.1,0,.22c-1.48,22.4-8,37.84-19.84,47.22-7.68,6.07-17.17,9.14-28.21,9.14a69.14,69.14,0,0,1-12.57-1.21l-48.08-8.15a11.94,11.94,0,0,0-2.09-.19c-6.47,0-8.18,5.87-8.18,9v20.34h1.12a72.3,72.3,0,0,1,11.95,1c29.46,5.24,41,34.77,41.43,36L628,301.57l-16.76-6,0,1.58c-.43,16.12-3.51,45.71-19.36,62.83l-.49.53.27.68c12.88,32.38,25.89,80.91,14.75,128.27-7.11,30.23-20.52,45.45-21.09,46.08l-6.87,7.73-4.77-9.08-1,2a315,315,0,0,1-47.1,71.21,292,292,0,0,1-50,45.21l-.23.16-6.15,11.92c-14.77,28.6-52.58,59.15-114.4,59.15"/><path class="cls-1" d="M644.52,112.64c-9.8-13.5-15.94-23.8-15.95-29.9v-.53c0-6.1,3.56-12.58,9.87-12.44h31.91c0-14.24,0-23,0-37.3h-36c-28.88,0-43.17,20.75-43.17,49.24v1.53c0,17.61,5.27,22,29.46,57.44,8.63,11.91,12.55,18.79,12.68,27.88v.54c0,7.21-3.51,8-10.46,6.77-12.16-2.38-33.28-6.85-51.51-10.08,0,13.33,0,24.7,0,38l58,9.62c29.59,5.46,39.22-13.15,41-39.42v-1.41c.6-25.86-7.51-33-25.81-60"/><path class="cls-1" d="M563.21,142.76c9.9-36.76,19.14-73.71,29.69-110.28H556.43c-3.88,18.63-7.47,37.33-11.06,56-3.61-18.7-7.28-37.39-11.24-56q-19.07,0-38.13,0c10.76,35.39,20.71,71,30.34,106.68,0,19.58,0,38.51,0,58.09q18.48,2.3,36.87,5c0-20.06,0-39.47,0-59.54"/><path class="cls-1" d="M487.06,32.47h-37.2V190.21c22.49,1.55,45.09,3.52,67.5,5.94q0-18.17,0-36.33-15.15-1.35-30.31-2.53Z"/><path class="cls-1" d="M408,153c13.59-36.69,19.08-51.77,33.15-90q0-15.27,0-30.55H366.19V67.61c11.2,0,22.57,0,33.77,0-11.48,29.8-22.13,59.44-33.77,89.17q0,15.21,0,30.43c25.43.26,49.79,1.1,75.19,2.51l-.06-35.26c-11.41-.58-21.87-1.06-33.29-1.43"/><path class="cls-1" d="M282,67.61h34.8q-17.57,45.48-34.8,91,0,15.26,0,30.49,38.13-1.81,76.35-1.92V152.11c-11.46,0-23,.16-34.43.42Q341,107.68,358.35,63V32.5l-76.35,0c0,11.73,0,23.41,0,35.14"/><path class="cls-1" d="M236.1,192.21c12.39-1,24.86-1.9,37.26-2.62V32.47H236.1Z"/><path class="cls-1" d="M190.47,91.87c.66,9.37-3.22,21.92-14.1,22.6l-1.05.07V66.22H176c10.95-.31,15.2,11.79,14.47,21.13,0,1.81,0,2.72,0,4.53m38.18-4.5V84.83c.45-13.79-3.82-28.39-13.34-38.38C205.17,35.8,189,32.6,175,32.49l-36.79,0V203.69c12.2-1.87,24.89-3.58,37.13-5.14v-51l1.38-.14q7.11,24.64,14.56,49.18,19.76-2.2,39.53-4-10.46-30.42-20.41-61c13.32-12,17.17-26.71,18.27-44.28"/><path class="cls-1" d="M39.16,122.71v14.36c.84,34.84,5.37,83.72,52.49,74.67l37.46-6.61V103.51c-14.49.83-29.45,1.77-43.92,2.79v40.23c4.19-.53,6.46-.8,10.66-1.31,0,11.1,0,20.89,0,32a6.46,6.46,0,0,1-2.63,1.19c-17.82,2.23-16.37-34-16.64-44.85V118.27c.5-15.48.66-46.52,22.85-47.77,8.4-.47,10.24-.6,29.65-.73V32.47H95.72c-45.47,0-55.63,53-56.56,90.24"/><path class="cls-2" d="M285.74,159.33c10.77-28.5,22.07-58.05,34.55-90.34l2-5.17H285.74V36.26l67.56,0h1.31v26l-.32.81c-11.15,28.87-22.68,58.71-33.86,88.12l-2,5.27,5.57-.12c11.65-.27,21.41-.4,30.61-.42v27.52c-22.76.11-45.91.69-68.87,1.73Zm151.89,26.4c-23.13-1.24-45.3-2-67.7-2.27v-26c6.32-16.15,12.44-32.52,18.36-48.36l.11-.31c4.86-13,9.89-26.46,15.05-39.84l2-5.16H400l-18.89,0H369.93V36.26H437.4l0,26.08L426.56,91.93c-7.07,19.25-12.66,34.46-22,59.77l-1.83,5,5.22.16c9.25.31,18.44.69,29.68,1.25ZM239.85,36.27h29.77V186c-9.95.6-20,1.3-29.77,2.08ZM513.62,192c-19.62-2.07-39.8-3.84-60-5.27V36.26h29.71V160.8l3.45.27c9.3.72,18.33,1.47,26.86,2.22Zm45.85,6c-9.79-1.43-19.66-2.78-29.39-4V138.66l-.13-.49c-10.61-39.35-19.81-71.78-28.89-101.89h30c3.81,18,7.35,36.11,10.6,53l3.73,17.68,1.14-4.87c2.7-14.08,9-46.78,12.9-65.77h28.45c-6.49,22.76-12.58,45.93-18.48,68.36l-.05.18c-3.18,12.09-6.46,24.6-9.79,37l-.14.49s0,44.13,0,55.66M171.58,62.47v56.1l5-.31a16.42,16.42,0,0,0,11.63-5.83c5-5.83,6.39-14.53,6-20.73V87.45c.44-5.9-.89-14.26-6-19.8a15.63,15.63,0,0,0-11.85-5.23l-4.81,0M141.93,36.26h33c11.7.1,27.73,2.39,37.65,12.81,8.15,8.55,12.74,21.87,12.29,35.62v2.58c-.91,14.41-3.6,29.47-17,41.54l-1.84,1.65.77,2.37c6.65,20.34,12.83,38.84,18.87,56.48-10.67,1-21.35,2.08-31.76,3.22-4.52-14.94-9.11-30.46-13.64-46.14l-.87-3-7.84.77v51.05c-11,1.42-20.76,2.76-29.65,4.09ZM80.86,209.05c-31.92,0-37.1-36.43-37.95-72.07V122.71c.4-16.08,2.66-39.13,11.21-57.47,9-19.23,22.95-29,41.6-29h29.65V66c-15.59.12-18.15.27-25.4.67l-.71,0c-24.88,1.4-25.83,32.91-26.34,49.83l0,1.6v15.4c0,1,0,2,0,3.21v.33c.12,14.67.39,45.2,18.79,45.2a17.49,17.49,0,0,0,2-.13,10,10,0,0,0,4.38-1.9l1.54-1.14,0-38.16-10.66,1.29V109.83c11.81-.81,24.06-1.59,36.44-2.31v94.42L91,208a54.47,54.47,0,0,1-10.15,1M639,210.63a50.06,50.06,0,0,1-9-.89L575.33,200V170.63c7.76,1.63,20,3.93,31,6,6.23,1.17,11.92,2.23,15.81,3a29.71,29.71,0,0,0,5.12.54c3.22,0,5.61-.92,7.31-2.81s2.48-4.51,2.48-8.22v-.53c-.15-10.16-4.26-17.5-13.41-30.13-3.67-5.39-7-10.12-9.84-14.29-15.65-22.55-18.89-27.23-18.89-40.91V81.72c0-28.46,14.74-45.46,39.44-45.46h32.29V66H638.25A12.27,12.27,0,0,0,628,71.54a19,19,0,0,0-3.2,10.67v.53c0,6.45,5,16.06,16.68,32.14,2.57,3.79,5,7.33,7.21,10.45,13,18.61,18.35,26.32,17.87,47.21V174c-1.68,25-10.44,36.68-27.55,36.68"/><path class="cls-1" d="M171.75,249.34l7.84-1,6.55-19.9,6.5,18.26,7.84-1L211.35,211,202,212.17l-5.66,19.88-6.26-18.48-7.76,1-6.26,20.06-5.67-18.47-9.51,1.2Zm67.09-7a19.08,19.08,0,0,0,17.62-18.71v-.1c0-9.51-7.46-16.51-17.53-15.67a19.08,19.08,0,0,0-17.62,18.71v.1c0,9.51,7.46,16.51,17.53,15.67m.09-8.3c-5,.42-8.39-3.46-8.39-8.24v-.09c0-4.79,3.31-9.13,8.3-9.55s8.34,3.42,8.34,8.24v.1c0,4.78-3.3,9.13-8.25,9.54m31.53,5.18,24.9-1.32v-8l-15.83.84V205.58l-9.07.48Zm38.17-1.89,9.08-.22V225.26l15.48-.38v-7.62l-15.48.37V212l17.11-.42v-8.05l-26.19.64Zm52.57-.17c8,0,13.24-3.95,13.24-10.72v-.09c0-6.21-4.68-8.69-12.16-10.39-4.58-1.07-5.71-1.74-5.71-3.25v-.1c0-1.23,1.08-2.12,3.28-2.11A15.92,15.92,0,0,1,369,213.8l4.54-6.46c-3.55-2.91-7.9-4.45-13.47-4.48-7.86-.05-12.67,4.38-12.67,10.53v.1c0,6.76,5.37,8.78,12.35,10.43,4.49,1.12,5.56,1.83,5.56,3.25v.1c0,1.42-1.31,2.26-3.79,2.25a16.9,16.9,0,0,1-10.62-4l-5.05,6.08a22.88,22.88,0,0,0,15.34,5.58m27-.33,16.87.66c7.81.31,12.39-3,12.39-8.65v-.1c0-4.5-2.53-6.87-6.5-8.35,2.9-1.16,5.05-3.35,5.05-7.19v-.09a7.85,7.85,0,0,0-2.1-5.48c-1.92-2-4.82-3.12-8.93-3.28l-16.78-.66Zm18.88-22.08c0,1.94-1.59,2.83-4.35,2.72l-5.7-.22V211.4l5.94.24c2.66.1,4.11,1.15,4.11,3Zm1.31,12.36v.09c0,1.95-1.54,3-4.35,2.87l-7-.28v-6.1l6.92.26c3,.12,4.44,1.36,4.44,3.16m37.27,13.1c9.29.66,15.31-3.65,15.31-14.3V207.52l-9.15-.65v18.65c0,4.64-2.38,6.65-6.06,6.4s-6-2.7-6-7.48V206l-9.15-.64V224c0,10.37,5.84,15.56,15.07,16.21m30,1.61,9,.94v-10l4,.42,6.57,10.71,10.37,1.07-7.77-12.35c4.05-1.33,6.7-4.42,6.7-9.53v-.1a11.48,11.48,0,0,0-2.88-8c-2.19-2.46-5.63-4.14-10.61-4.65l-15.41-1.6Zm9-16.29v-8l6,.62c3,.31,4.88,1.83,4.88,4.48v.1c0,2.41-1.81,3.74-4.84,3.43ZM535,249.23a19.18,19.18,0,0,0,14.1-3.26V231.1l-14.89-2v6.72l6.36.86v4a8.15,8.15,0,0,1-5.2.67A10.21,10.21,0,0,1,526.53,231v-.1c0-5.06,3.62-8.55,8.3-7.92a13,13,0,0,1,7.84,4.18l5.29-5.83a21.56,21.56,0,0,0-13.17-6.55c-10-1.35-17.44,5.23-17.44,14.88v.1c0,10,7.51,18.15,17.62,19.51"/><path class="cls-3" d="M277.72,370.12c-39.22,19.79-34.3,72.07-33,84.31,3.28-6.32,7.56-8.84,7.56-8.84s-6,50.88,19.26,83.32c-10.67-62,18.61-101.48,18.61-101.48a81.58,81.58,0,0,0-.9,14.08c15.42-8.84,58.54-8.84,58.54-8.84s2-37.53-11.78-42.41S278.28,408,277.72,370.12"/><path class="cls-3" d="M431.8,370.12c39.22,19.79,34.3,72.07,33,84.31-3.29-6.32-7.56-8.84-7.56-8.84s6,50.88-19.26,83.32c10.67-62-18.61-101.48-18.61-101.48a81.58,81.58,0,0,1,.9,14.08c-15.42-8.84-58.55-8.84-58.55-8.84s-2-37.53,11.79-42.41S431.23,408,431.8,370.12"/><path class="cls-3" d="M429,597.2c-4.21,25.51-13.41,47.25-22,61.18-8.75,3.09-31.8,6.9-52.27,6.8-20.47.1-43.52-3.71-52.28-6.8-8.59-13.93-17.79-35.67-22-61.18-21,58.45,21.33,85.32,21.33,85.32a56.24,56.24,0,0,1-13-.36c4,6.71,24.59,21.08,66,21.08s61.92-14.37,66-21.08a56.24,56.24,0,0,1-13,.36S450,655.65,429,597.2"/><path class="cls-1" d="M354.76,347c-38,0-60.78,22.92-53.76,27,1.79,1,10.05-1.73,21.23-4.52A13.76,13.76,0,0,1,346.71,365c2.67-.25,5.36-.42,8.05-.46s5.38.21,8.05.46a13.76,13.76,0,0,1,24.48,4.46c11.17,2.8,19.44,5.55,21.23,4.52,7-4.05-15.77-27-53.76-27"/><path class="cls-1" d="M419.41,453.13c-47.24-12.36-64.65-4-64.65-4s-17.41-8.37-64.66,4c0,15.1,2.12,38.45,11.41,61.23,3.73-39.54,13.8-48.92,13.8-48.92l8.88,11.11,10.42-10.29L345,476.55l9.73-9.61,9.73,9.61,10.42-10.29,10.42,10.29,8.88-11.11s10.07,9.38,13.8,48.92c9.29-22.78,11.4-46.13,11.4-61.23"/><path class="cls-2" d="M562.06,272.57c-32.3.36-72.11,28.71-72.11,28.71s-67.59-39.47-135.19-14.35h0l0,0c-21.28-7.9-42.55-9.39-61.72-7.74-42.13,3.44-73.44,22.11-73.44,22.11s-4.15-2.95-10.82-6.94c-.93-.56-1.91-1.14-2.93-1.73l-3.18-1.81q-2-1.11-4.17-2.26l-.39-.21c-14.29-7.52-33.51-15.57-50.62-15.76h0a33.6,33.6,0,0,0-11.2,1.74l-.34.12c-.79.3-1.55.62-2.27,1-.35.17-.69.34-1,.53s-.63.36-.93.55c-23.93,14.57-3,65.4,4.2,68.9a1.15,1.15,0,0,0,0-.19l.15.19c11-15.23,16.51-20.67,22.56-24.48l-19.53,8.16s-6.3-20.53,11.93-27.59a8.08,8.08,0,0,1,1-.19c14.27-1.44,48.44,13.63,48.44,13.63s-25.53,13.64-43.56,42h0c18.77-3.22,23.28-1.43,23.29-1.43s-32.68,42-24.41,102.62c3.41-5.44,6-7.84,7.5-8.89a2.49,2.49,0,0,1,.3-.19,4.81,4.81,0,0,1,.44-.27,3.92,3.92,0,0,1,.77-.34s-4.51,57.05,60.84,106.93h0c-27.64-80.5-10.52-124.87-10.52-124.87a40.65,40.65,0,0,0,10.52,11.48c0-43.82,17.06-70,38.79-85.59-19.87-4.92-26.28-15.74-26.28-15.74s5.51-15.85,27.78-25.67c-13.26-7.14-49.31,15.48-49.31,15.48s34.47-37.93,75.11-22.62c25.36,9.55,22.71,21.13,58.06,26.2l1,0,4-12.66,4,12.66,1.06,0c35.35-5.07,32.7-16.65,58.06-26.2C458.49,292.48,493,330.41,493,330.41s-36.06-22.62-49.31-15.48c22.27,9.82,27.78,25.67,27.78,25.67s-6.41,10.82-26.28,15.74c21.73,15.58,38.79,41.77,38.79,85.59,0,54.1-26,83.2-26,83.2s16.65-5.23,35.4-19.18c-2.62,19.69-8.42,43.2-22.47,60a214.15,214.15,0,0,0,39.55-34.66,148.51,148.51,0,0,0,21.77-31.57s0-.07.05-.1c.61-1.19,1.19-2.38,1.74-3.56,11-23.19,11.4-41.08,11.23-46.14a159.8,159.8,0,0,1,14.53,10C565,415.54,544.87,381,529.46,355.55l-.08-.09h0c.36-.13,5.22-1.66,23.25,1.44-18-28.34-45.07-41.26-45.07-41.26s27-26.91,41.31-25.48c9.77,1.08,13.9,13.28,13.9,13.28s4.88-10.4,3.38-13.28c12.39,1.8,16.9,37,16.9,37s20.65-54.54-21-54.54"/><path class="cls-1" d="M401.53,596.51c-6.07,29.57-15.21,40.23-15.21,40.23l-7.1-11.07-8.34,8.24-8.34-8.24-7.78,7.69L347,625.67l-8.34,8.24-8.34-8.24-7.1,11.07s-9.14-10.66-15.21-40.23c-7.44,18.23-2.75,46.24,0,50.32,1.69,3.35,19.06,5.66,32.14,6.95,4.87.35,9.82.55,14.63.52s9.76-.17,14.63-.52c13.08-1.29,30.44-3.6,32.14-6.95,2.75-4.08,7.44-32.09,0-50.32"/><path class="cls-2" d="M316.24,540.09s28.76,16.21,32.1,20.26,6.42,20.27,6.42,20.27,4.15-17.41,6.42-20.27,32.1-6.75,32.1-6.75S380.67,595.7,374,600.88s-28.64,6.7-38.52,0-19.26-60.79-19.26-60.79"/><path class="cls-1" d="M302.39,343.81c-10.39-6.17-13.17-8.69-18.52-15.8-10.6-1.28-24.18,8.64-24.18,8.64a37.49,37.49,0,0,0,9.83,5.93,10.31,10.31,0,0,1,19.87,3.54,51.22,51.22,0,0,0,13-2.31"/><path class="cls-1" d="M449.83,336.65s-13.59-9.92-24.18-8.64c-5.35,7.11-8.13,9.63-18.52,15.8a51.14,51.14,0,0,0,13,2.31A10.32,10.32,0,0,1,440,342.59a37.65,37.65,0,0,0,9.83-5.94"/><path class="cls-2" d="M242,629.83c-1.94-5.92-3.83-17-3.83-20.92-25.89-14.16-40.43-27.9-65-51.14,10.22,23.51,50.49,61.32,68.79,72.06"/><path class="cls-2" d="M467.56,629.83c1.94-5.92,3.83-17,3.83-20.92,25.89-14.16,40.43-27.9,65-51.14-10.21,23.51-50.48,61.32-68.78,72.06"/><path class="cls-1" d="M354.76,286.93c-69.25-25-135.19,14.35-135.19,14.35s-39.81-28.35-72.11-28.71c-47.06.33-20,68.73-11.57,72.81a1.15,1.15,0,0,0,0-.19l.15.19c11-15.23,16.51-20.67,22.56-24.48l-19.53,8.16s-6.3-20.53,11.93-27.59a8.08,8.08,0,0,1,1-.19c14.27-1.44,48.44,13.63,48.44,13.63s-25.53,13.64-43.56,42c18.78-3.23,23.29-1.43,23.29-1.43s-32.68,42-24.41,102.62c5.63-9,9-9.69,9-9.69s-4.51,57.05,60.84,106.93c-25.54-43.06-42.06-56-39.81-132,2.61-3.79-4.51-1.08-12.39.71,4-34.34,8.63-57.41,37.17-82.53-5.25-1.43-12,0-16.52,0,52.58-60.28,103.65-61.71,160.73-54.53"/><rect class="cls-4" x="-212.6" y="-221.1" width="1133.86" height="1179.22"/></svg>